<?xml version="1.0" encoding="UTF-8"?>
<svg width="728px" height="512px" viewBox="0 0 728 512" version="1.1" xmlns="http://www.w3.org/2000/svg" xmlns:xlink="http://www.w3.org/1999/xlink">
    <title>Logo_NFTHack</title>
    <defs>
        <filter x="-8.1%" y="-12.3%" width="116.3%" height="124.6%" filterUnits="objectBoundingBox" id="filter-1">
            <feOffset dx="0" dy="30" in="SourceAlpha" result="shadowOffsetOuter1"></feOffset>
            <feColorMatrix values="0 0 0 0 0   0 0 0 0 0   0 0 0 0 0  0 0 0 0.0998688811 0" type="matrix" in="shadowOffsetOuter1" result="shadowMatrixOuter1"></feColorMatrix>
            <feMerge>
                <feMergeNode in="shadowMatrixOuter1"></feMergeNode>
                <feMergeNode in="SourceGraphic"></feMergeNode>
            </feMerge>
        </filter>
    </defs>
    <g id="Page-1" stroke="none" stroke-width="1" fill="none" fill-rule="evenodd">
        <g id="Scaling-Ethereum-Copy" transform="translate(-356.000000, -212.000000)">
            <g id="Logo_NFTHack" transform="translate(357.000000, 213.000000)" filter="url(#filter-1)">
                <g id="Group-113">
                    <path d="M698.5738,27.4025 C701.4388,27.7605 703.0708,30.2275 702.4738,32.4165 L691.6498,80.2135 C691.0128,82.7205 688.2268,84.3125 685.9988,84.0335 L638.5598,78.1045 L618.8228,236.0215 C618.5448,238.2495 616.3548,240.2385 613.8078,239.9205 L557.4558,232.8775 C554.9088,232.5595 552.9588,230.0525 553.2368,227.8225 L572.9738,69.9075 L520.1238,63.3015 C517.8948,63.0235 515.9048,60.8345 516.2228,58.2875 L522.2318,10.2125 C522.5508,7.6655 525.0568,5.7155 527.2858,5.9935 L698.5738,27.4025 Z" id="Fill-1" fill="#FFF985"></path>
                    <path d="M698.5738,27.4025 C701.4388,27.7605 703.0708,30.2275 702.4738,32.4165 L691.6498,80.2135 C691.0128,82.7205 688.2268,84.3125 685.9988,84.0335 L638.5598,78.1045 L618.8228,236.0215 C618.5448,238.2495 616.3548,240.2385 613.8078,239.9205 L557.4558,232.8775 C554.9088,232.5595 552.9588,230.0525 553.2368,227.8225 L572.9738,69.9075 L520.1238,63.3015 C517.8948,63.0235 515.9048,60.8345 516.2228,58.2875 L522.2318,10.2125 C522.5508,7.6655 525.0568,5.7155 527.2858,5.9935 L698.5738,27.4025 Z" id="Stroke-3" stroke="#000000" stroke-width="2"></path>
                    <path d="M687.0347,38.9415 C689.8997,39.2995 691.5317,41.7675 690.9337,43.9565 L680.1097,91.7525 C679.4727,94.2595 676.6877,95.8525 674.4597,95.5735 L627.0207,89.6445 L607.2837,247.5605 C607.0047,249.7885 604.8157,251.7785 602.2687,251.4605 L545.9157,244.4165 C543.3687,244.0985 541.4187,241.5915 541.6977,239.3625 L561.4347,81.4465 L508.5837,74.8415 C506.3547,74.5625 504.3657,72.3735 504.6837,69.8265 L510.6917,21.7515 C511.0107,19.2045 513.5177,17.2545 515.7467,17.5325 L687.0347,38.9415 Z" id="Fill-5" fill="#FF8585"></path>
                    <path d="M687.0347,38.9415 C689.8997,39.2995 691.5317,41.7675 690.9337,43.9565 L680.1097,91.7525 C679.4727,94.2595 676.6877,95.8525 674.4597,95.5735 L627.0207,89.6445 L607.2837,247.5605 C607.0047,249.7885 604.8157,251.7785 602.2687,251.4605 L545.9157,244.4165 C543.3687,244.0985 541.4187,241.5915 541.6977,239.3625 L561.4347,81.4465 L508.5837,74.8415 C506.3547,74.5625 504.3657,72.3735 504.6837,69.8265 L510.6917,21.7515 C511.0107,19.2045 513.5177,17.2545 515.7467,17.5325 L687.0347,38.9415 Z" id="Stroke-7" stroke="#000000" stroke-width="2"></path>
                    <path d="M675.4947,50.4811 C678.3597,50.8391 679.9917,53.3071 679.3947,55.4961 L668.5707,103.2921 C667.9337,105.7991 665.1477,107.3911 662.9197,107.1131 L615.4807,101.1841 L595.7437,259.0991 C595.4657,261.3281 593.2767,263.3181 590.7297,263.0001 L534.3767,255.9571 C531.8297,255.6381 529.8797,253.1301 530.1577,250.9021 L549.8947,92.9861 L497.0447,86.3801 C494.8157,86.1021 492.8257,83.9131 493.1437,81.3661 L499.1527,33.2911 C499.4717,30.7441 501.9777,28.7941 504.2077,29.0721 L675.4947,50.4811 Z" id="Fill-9" fill="#FF85FD"></path>
                    <path d="M675.4947,50.4811 C678.3597,50.8391 679.9917,53.3071 679.3947,55.4961 L668.5707,103.2921 C667.9337,105.7991 665.1477,107.3911 662.9197,107.1131 L615.4807,101.1841 L595.7437,259.0991 C595.4657,261.3281 593.2767,263.3181 590.7297,263.0001 L534.3767,255.9571 C531.8297,255.6381 529.8797,253.1301 530.1577,250.9021 L549.8947,92.9861 L497.0447,86.3801 C494.8157,86.1021 492.8257,83.9131 493.1437,81.3661 L499.1527,33.2911 C499.4717,30.7441 501.9777,28.7941 504.2077,29.0721 L675.4947,50.4811 Z" id="Stroke-11" stroke="#000000" stroke-width="2"></path>
                    <path d="M663.9556,62.0206 C666.8206,62.3786 668.4526,64.8456 667.8556,67.0346 L657.0316,114.8316 C656.3946,117.3386 653.6086,118.9306 651.3806,118.6516 L603.9416,112.7236 L584.2046,270.6396 C583.9266,272.8676 581.7366,274.8566 579.1896,274.5386 L522.8376,267.4956 C520.2906,267.1776 518.3406,264.6706 518.6186,262.4416 L538.3556,104.5256 L485.5056,97.9196 C483.2756,97.6416 481.2866,95.4526 481.6046,92.9056 L487.6136,44.8306 C487.9326,42.2836 490.4386,40.3336 492.6676,40.6116 L663.9556,62.0206 Z" id="Fill-13" fill="#85F0FF"></path>
                    <path d="M663.9556,62.0206 C666.8206,62.3786 668.4526,64.8456 667.8556,67.0346 L657.0316,114.8316 C656.3946,117.3386 653.6086,118.9306 651.3806,118.6516 L603.9416,112.7236 L584.2046,270.6396 C583.9266,272.8676 581.7366,274.8566 579.1896,274.5386 L522.8376,267.4956 C520.2906,267.1776 518.3406,264.6706 518.6186,262.4416 L538.3556,104.5256 L485.5056,97.9196 C483.2756,97.6416 481.2866,95.4526 481.6046,92.9056 L487.6136,44.8306 C487.9326,42.2836 490.4386,40.3336 492.6676,40.6116 L663.9556,62.0206 Z" id="Stroke-15" stroke="#000000" stroke-width="2"></path>
                    <path d="M724.3873,430.8346 C725.8683,432.4686 724.9983,433.8606 722.9613,434.0986 L663.8793,440.9936 C662.0973,441.2026 659.4023,440.2266 658.1753,438.5626 L619.1653,378.5826 L626.5373,441.7386 C626.7453,443.5216 625.4253,445.4816 623.1333,445.7496 L578.0583,451.0116 C576.2763,451.2196 574.2843,449.6446 574.0763,447.8616 L554.4303,279.5296 C554.1923,277.4926 555.7673,275.5016 557.5493,275.2936 L602.6243,270.0326 C604.9163,269.7656 606.6533,271.3696 606.8903,273.4066 L613.5483,330.4506 L637.3613,269.0756 C638.1713,267.1746 640.5703,265.6046 642.8613,265.3366 L698.6323,258.8266 C700.6693,258.5896 701.5823,259.7726 700.7723,261.6756 L659.7713,348.2876 L724.3873,430.8346 Z" id="Fill-17" fill="#FFF985"></path>
                    <path d="M724.3873,430.8346 C725.8683,432.4686 724.9983,433.8606 722.9613,434.0986 L663.8793,440.9936 C662.0973,441.2026 659.4023,440.2266 658.1753,438.5626 L619.1653,378.5826 L626.5373,441.7386 C626.7453,443.5216 625.4253,445.4816 623.1333,445.7496 L578.0583,451.0116 C576.2763,451.2196 574.2843,449.6446 574.0763,447.8616 L554.4303,279.5296 C554.1923,277.4926 555.7673,275.5016 557.5493,275.2936 L602.6243,270.0326 C604.9163,269.7656 606.6533,271.3696 606.8903,273.4066 L613.5483,330.4506 L637.3613,269.0756 C638.1713,267.1746 640.5703,265.6046 642.8613,265.3366 L698.6323,258.8266 C700.6693,258.5896 701.5823,259.7726 700.7723,261.6756 L659.7713,348.2876 L724.3873,430.8346 Z" id="Stroke-19" stroke="#000000" stroke-width="2"></path>
                    <path d="M714.8375,440.3844 C716.3185,442.0184 715.4485,443.4104 713.4115,443.6484 L654.3295,450.5444 C652.5475,450.7524 649.8525,449.7764 648.6245,448.1124 L609.6155,388.1324 L616.9875,451.2884 C617.1955,453.0714 615.8755,455.0314 613.5835,455.2994 L568.5085,460.5614 C566.7265,460.7694 564.7345,459.1944 564.5265,457.4114 L544.8805,289.0794 C544.6425,287.0424 546.2165,285.0514 547.9995,284.8434 L593.0745,279.5824 C595.3665,279.3154 597.1035,280.9194 597.3405,282.9564 L603.9985,340.0004 L627.8115,278.6254 C628.6215,276.7244 631.0195,275.1544 633.3115,274.8864 L689.0825,268.3764 C691.1195,268.1394 692.0325,269.3224 691.2225,271.2254 L650.2215,357.8384 L714.8375,440.3844 Z" id="Fill-21" fill="#FF8585"></path>
                    <path d="M714.8375,440.3844 C716.3185,442.0184 715.4485,443.4104 713.4115,443.6484 L654.3295,450.5444 C652.5475,450.7524 649.8525,449.7764 648.6245,448.1124 L609.6155,388.1324 L616.9875,451.2884 C617.1955,453.0714 615.8755,455.0314 613.5835,455.2994 L568.5085,460.5614 C566.7265,460.7694 564.7345,459.1944 564.5265,457.4114 L544.8805,289.0794 C544.6425,287.0424 546.2165,285.0514 547.9995,284.8434 L593.0745,279.5824 C595.3665,279.3154 597.1035,280.9194 597.3405,282.9564 L603.9985,340.0004 L627.8115,278.6254 C628.6215,276.7244 631.0195,275.1544 633.3115,274.8864 L689.0825,268.3764 C691.1195,268.1394 692.0325,269.3224 691.2225,271.2254 L650.2215,357.8384 L714.8375,440.3844 Z" id="Stroke-23" stroke="#000000" stroke-width="2"></path>
                    <path d="M705.2877,449.9342 C706.7687,451.5682 705.8987,452.9602 703.8617,453.1982 L644.7797,460.0942 C642.9977,460.3022 640.3027,459.3262 639.0747,457.6622 L600.0657,397.6822 L607.4377,460.8382 C607.6457,462.6212 606.3257,464.5812 604.0337,464.8492 L558.9587,470.1112 C557.1757,470.3192 555.1847,468.7442 554.9767,466.9612 L535.3307,298.6292 C535.0927,296.5922 536.6667,294.6012 538.4497,294.3932 L583.5247,289.1322 C585.8167,288.8652 587.5537,290.4692 587.7907,292.5062 L594.4487,349.5502 L618.2617,288.1752 C619.0717,286.2742 621.4697,284.7042 623.7617,284.4362 L679.5327,277.9262 C681.5697,277.6892 682.4827,278.8722 681.6727,280.7752 L640.6717,367.3882 L705.2877,449.9342 Z" id="Fill-25" fill="#FF85FD"></path>
                    <path d="M705.2877,449.9342 C706.7687,451.5682 705.8987,452.9602 703.8617,453.1982 L644.7797,460.0942 C642.9977,460.3022 640.3027,459.3262 639.0747,457.6622 L600.0657,397.6822 L607.4377,460.8382 C607.6457,462.6212 606.3257,464.5812 604.0337,464.8492 L558.9587,470.1112 C557.1757,470.3192 555.1847,468.7442 554.9767,466.9612 L535.3307,298.6292 C535.0927,296.5922 536.6667,294.6012 538.4497,294.3932 L583.5247,289.1322 C585.8167,288.8652 587.5537,290.4692 587.7907,292.5062 L594.4487,349.5502 L618.2617,288.1752 C619.0717,286.2742 621.4697,284.7042 623.7617,284.4362 L679.5327,277.9262 C681.5697,277.6892 682.4827,278.8722 681.6727,280.7752 L640.6717,367.3882 L705.2877,449.9342 Z" id="Stroke-27" stroke="#000000" stroke-width="2"></path>
                    <path d="M695.7379,459.484 C697.2189,461.118 696.3489,462.51 694.3119,462.748 L635.2299,469.644 C633.4469,469.852 630.7529,468.876 629.5249,467.213 L590.5159,407.232 L597.8869,470.388 C598.0959,472.171 596.7759,474.132 594.4839,474.399 L549.4089,479.661 C547.6259,479.869 545.6349,478.294 545.4269,476.511 L525.7809,308.179 C525.5429,306.142 527.1169,304.151 528.8999,303.943 L573.9749,298.682 C576.2669,298.415 578.0039,300.019 578.2409,302.056 L584.8989,359.101 L608.7119,297.725 C609.5219,295.824 611.9199,294.254 614.2119,293.986 L669.9829,287.476 C672.0199,287.239 672.9329,288.423 672.1229,290.325 L631.1219,376.938 L695.7379,459.484 Z" id="Fill-29" fill="#85FF89"></path>
                    <path d="M695.7379,459.484 C697.2189,461.118 696.3489,462.51 694.3119,462.748 L635.2299,469.644 C633.4469,469.852 630.7529,468.876 629.5249,467.213 L590.5159,407.232 L597.8869,470.388 C598.0959,472.171 596.7759,474.132 594.4839,474.399 L549.4089,479.661 C547.6259,479.869 545.6349,478.294 545.4269,476.511 L525.7809,308.179 C525.5429,306.142 527.1169,304.151 528.8999,303.943 L573.9749,298.682 C576.2669,298.415 578.0039,300.019 578.2409,302.056 L584.8989,359.101 L608.7119,297.725 C609.5219,295.824 611.9199,294.254 614.2119,293.986 L669.9829,287.476 C672.0199,287.239 672.9329,288.423 672.1229,290.325 L631.1219,376.938 L695.7379,459.484 Z" id="Stroke-31" stroke="#000000" stroke-width="2"></path>
                    <path d="M495.7428,417.8414 C496.3018,419.7124 495.0768,421.3784 492.9218,422.1614 C477.0928,429.6294 456.5798,432.9444 437.7318,430.7734 C385.2628,424.7284 354.3378,384.0014 360.6768,328.9844 C367.0138,273.9674 406.3888,241.3394 458.8588,247.3844 C477.7068,249.5554 496.9288,257.4474 510.6448,268.3194 C512.5658,269.5724 513.3788,271.4734 512.4098,273.1674 L491.5198,306.6354 C490.2368,308.8104 488.3658,309.3694 486.4458,308.1154 C477.6388,301.6814 468.6748,298.8414 457.7218,297.5794 C434.7978,294.9394 417.5788,309.9884 414.6738,335.2054 C411.7688,360.4214 425.1148,378.9924 448.0388,381.6334 C458.9908,382.8954 468.3658,382.1684 478.4058,377.9054 C480.5608,377.1214 482.2558,378.0904 483.0108,380.5004 L495.7428,417.8414 Z" id="Fill-33" fill="#FFF985"></path>
                    <path d="M495.7428,417.8414 C496.3018,419.7124 495.0768,421.3784 492.9218,422.1614 C477.0928,429.6294 456.5798,432.9444 437.7318,430.7734 C385.2628,424.7284 354.3378,384.0014 360.6768,328.9844 C367.0138,273.9674 406.3888,241.3394 458.8588,247.3844 C477.7068,249.5554 496.9288,257.4474 510.6448,268.3194 C512.5658,269.5724 513.3788,271.4734 512.4098,273.1674 L491.5198,306.6354 C490.2368,308.8104 488.3658,309.3694 486.4458,308.1154 C477.6388,301.6814 468.6748,298.8414 457.7218,297.5794 C434.7978,294.9394 417.5788,309.9884 414.6738,335.2054 C411.7688,360.4214 425.1148,378.9924 448.0388,381.6334 C458.9908,382.8954 468.3658,382.1684 478.4058,377.9054 C480.5608,377.1214 482.2558,378.0904 483.0108,380.5004 L495.7428,417.8414 Z" id="Stroke-35" stroke="#000000" stroke-width="2"></path>
                    <path d="M505.2926,427.3912 C505.8516,429.2622 504.6266,430.9282 502.4716,431.7112 C486.6426,439.1792 466.1296,442.4952 447.2816,440.3232 C394.8126,434.2782 363.8876,393.5512 370.2266,338.5352 C376.5636,283.5172 415.9386,250.8892 468.4086,256.9342 C487.2576,259.1052 506.4786,266.9972 520.1946,277.8692 C522.1156,279.1222 522.9296,281.0232 521.9596,282.7182 L501.0696,316.1852 C499.7866,318.3612 497.9156,318.9192 495.9956,317.6652 C487.1886,311.2312 478.2246,308.3922 467.2716,307.1292 C444.3486,304.4892 427.1286,319.5382 424.2236,344.7552 C421.3186,369.9712 434.6646,388.5422 457.5886,391.1832 C468.5406,392.4452 477.9156,391.7182 487.9556,387.4552 C490.1106,386.6712 491.8056,387.6402 492.5606,390.0502 L505.2926,427.3912 Z" id="Fill-37" fill="#FF8585"></path>
                    <path d="M505.2926,427.3912 C505.8516,429.2622 504.6266,430.9282 502.4716,431.7112 C486.6426,439.1792 466.1296,442.4952 447.2816,440.3232 C394.8126,434.2782 363.8876,393.5512 370.2266,338.5352 C376.5636,283.5172 415.9386,250.8892 468.4086,256.9342 C487.2576,259.1052 506.4786,266.9972 520.1946,277.8692 C522.1156,279.1222 522.9296,281.0232 521.9596,282.7182 L501.0696,316.1852 C499.7866,318.3612 497.9156,318.9192 495.9956,317.6652 C487.1886,311.2312 478.2246,308.3922 467.2716,307.1292 C444.3486,304.4892 427.1286,319.5382 424.2236,344.7552 C421.3186,369.9712 434.6646,388.5422 457.5886,391.1832 C468.5406,392.4452 477.9156,391.7182 487.9556,387.4552 C490.1106,386.6712 491.8056,387.6402 492.5606,390.0502 L505.2926,427.3912 Z" id="Stroke-39" stroke="#000000" stroke-width="2"></path>
                    <path d="M514.8423,436.9411 C515.4013,438.8121 514.1763,440.4781 512.0223,441.2621 C496.1923,448.7291 475.6793,452.0451 456.8313,449.8731 C404.3623,443.8281 373.4373,403.1011 379.7763,348.0851 C386.1143,293.0671 425.4893,260.4391 477.9583,266.4841 C496.8073,268.6551 516.0283,276.5471 529.7443,287.4191 C531.6653,288.6721 532.4793,290.5731 531.5093,292.2681 L510.6193,325.7351 C509.3363,327.9111 507.4653,328.4691 505.5453,327.2151 C496.7383,320.7811 487.7743,317.9421 476.8213,316.6801 C453.8983,314.0391 436.6783,329.0891 433.7743,354.3051 C430.8683,379.5211 444.2143,398.0921 467.1383,400.7331 C478.0903,401.9951 487.4653,401.2681 497.5053,397.0051 C499.6603,396.2211 501.3553,397.1911 502.1103,399.6001 L514.8423,436.9411 Z" id="Fill-41" fill="#FF85FD"></path>
                    <path d="M514.8423,436.9411 C515.4013,438.8121 514.1763,440.4781 512.0223,441.2621 C496.1923,448.7291 475.6793,452.0451 456.8313,449.8731 C404.3623,443.8281 373.4373,403.1011 379.7763,348.0851 C386.1143,293.0671 425.4893,260.4391 477.9583,266.4841 C496.8073,268.6551 516.0283,276.5471 529.7443,287.4191 C531.6653,288.6721 532.4793,290.5731 531.5093,292.2681 L510.6193,325.7351 C509.3363,327.9111 507.4653,328.4691 505.5453,327.2151 C496.7383,320.7811 487.7743,317.9421 476.8213,316.6801 C453.8983,314.0391 436.6783,329.0891 433.7743,354.3051 C430.8683,379.5211 444.2143,398.0921 467.1383,400.7331 C478.0903,401.9951 487.4653,401.2681 497.5053,397.0051 C499.6603,396.2211 501.3553,397.1911 502.1103,399.6001 L514.8423,436.9411 Z" id="Stroke-43" stroke="#000000" stroke-width="2"></path>
                    <path d="M524.3922,446.4909 C524.9512,448.3619 523.7262,450.0279 521.5722,450.8119 C505.7422,458.2789 485.2292,461.5949 466.3812,459.4229 C413.9122,453.3779 382.9882,412.6509 389.3262,357.6349 C395.6642,302.6179 435.0392,269.9889 487.5082,276.0339 C506.3572,278.2049 525.5792,286.0969 539.2942,296.9689 C541.2152,298.2219 542.0292,300.1229 541.0592,301.8179 L520.1692,335.2849 C518.8862,337.4609 517.0162,338.0189 515.0952,336.7649 C506.2882,330.3309 497.3242,327.4919 486.3712,326.2299 C463.4482,323.5889 446.2282,338.6389 443.3242,363.8549 C440.4182,389.0709 453.7642,407.6419 476.6882,410.2829 C487.6402,411.5449 497.0152,410.8179 507.0552,406.5549 C509.2102,405.7709 510.9052,406.7409 511.6602,409.1499 L524.3922,446.4909 Z" id="Fill-45" fill="#85FF89"></path>
                    <path d="M524.3922,446.4909 C524.9512,448.3619 523.7262,450.0279 521.5722,450.8119 C505.7422,458.2789 485.2292,461.5949 466.3812,459.4229 C413.9122,453.3779 382.9882,412.6509 389.3262,357.6349 C395.6642,302.6179 435.0392,269.9889 487.5082,276.0339 C506.3572,278.2049 525.5792,286.0969 539.2942,296.9689 C541.2152,298.2219 542.0292,300.1229 541.0592,301.8179 L520.1692,335.2849 C518.8862,337.4609 517.0162,338.0189 515.0952,336.7649 C506.2882,330.3309 497.3242,327.4919 486.3712,326.2299 C463.4482,323.5889 446.2282,338.6389 443.3242,363.8549 C440.4182,389.0709 453.7642,407.6419 476.6882,410.2829 C487.6402,411.5449 497.0152,410.8179 507.0552,406.5549 C509.2102,405.7709 510.9052,406.7409 511.6602,409.1499 L524.3922,446.4909 Z" id="Stroke-47" stroke="#000000" stroke-width="2"></path>
                    <path d="M218.9312,32.2746 C221.7952,31.9106 223.9892,33.8956 224.3132,36.4416 L251.0682,246.8326 C251.3512,249.0616 249.7242,251.5316 246.8602,251.8966 L191.7952,258.8996 C189.5672,259.1826 186.5002,257.9546 184.5852,255.6106 L116.6142,163.6656 L129.1612,262.3356 C129.4452,264.5646 127.8192,267.0346 124.9532,267.3996 L68.6162,274.5636 C66.0702,274.8876 63.8762,272.9016 63.5932,270.6736 L36.8382,60.2826 C36.5142,57.7356 38.1412,55.2656 40.6872,54.9416 L95.7512,47.9396 C98.6172,47.5746 102.0012,48.7616 103.5992,51.1456 L171.2512,143.1326 L158.7442,44.7796 C158.4202,42.2336 160.3652,39.7226 162.5932,39.4386 L218.9312,32.2746 Z" id="Fill-49" fill="#FFF985"></path>
                    <path d="M218.9312,32.2746 C221.7952,31.9106 223.9892,33.8956 224.3132,36.4416 L251.0682,246.8326 C251.3512,249.0616 249.7242,251.5316 246.8602,251.8966 L191.7952,258.8996 C189.5672,259.1826 186.5002,257.9546 184.5852,255.6106 L116.6142,163.6656 L129.1612,262.3356 C129.4452,264.5646 127.8192,267.0346 124.9532,267.3996 L68.6162,274.5636 C66.0702,274.8876 63.8762,272.9016 63.5932,270.6736 L36.8382,60.2826 C36.5142,57.7356 38.1412,55.2656 40.6872,54.9416 L95.7512,47.9396 C98.6172,47.5746 102.0012,48.7616 103.5992,51.1456 L171.2512,143.1326 L158.7442,44.7796 C158.4202,42.2336 160.3652,39.7226 162.5932,39.4386 L218.9312,32.2746 Z" id="Stroke-51" stroke="#000000" stroke-width="2"></path>
                    <path d="M229.6744,21.5309 C232.5394,21.1669 234.7324,23.1519 235.0564,25.6979 L261.8114,236.0899 C262.0944,238.3179 260.4684,240.7889 257.6044,241.1529 L202.5384,248.1549 C200.3114,248.4379 197.2434,247.2119 195.3284,244.8679 L127.3584,152.9219 L139.9044,251.5929 C140.1894,253.8199 138.5624,256.2909 135.6974,256.6549 L79.3604,263.8199 C76.8134,264.1429 74.6204,262.1579 74.3374,259.9299 L47.5814,49.5389 C47.2584,46.9919 48.8844,44.5219 51.4314,44.1979 L106.4954,37.1959 C109.3604,36.8309 112.7454,38.0179 114.3424,40.4019 L181.9954,132.3889 L169.4874,34.0359 C169.1634,31.4899 171.1094,28.9789 173.3364,28.6959 L229.6744,21.5309 Z" id="Fill-53" fill="#FF8585"></path>
                    <path d="M229.6744,21.5309 C232.5394,21.1669 234.7324,23.1519 235.0564,25.6979 L261.8114,236.0899 C262.0944,238.3179 260.4684,240.7889 257.6044,241.1529 L202.5384,248.1549 C200.3114,248.4379 197.2434,247.2119 195.3284,244.8679 L127.3584,152.9219 L139.9044,251.5929 C140.1894,253.8199 138.5624,256.2909 135.6974,256.6549 L79.3604,263.8199 C76.8134,264.1429 74.6204,262.1579 74.3374,259.9299 L47.5814,49.5389 C47.2584,46.9919 48.8844,44.5219 51.4314,44.1979 L106.4954,37.1959 C109.3604,36.8309 112.7454,38.0179 114.3424,40.4019 L181.9954,132.3889 L169.4874,34.0359 C169.1634,31.4899 171.1094,28.9789 173.3364,28.6959 L229.6744,21.5309 Z" id="Stroke-55" stroke="#000000" stroke-width="2"></path>
                    <path d="M240.4185,10.7872 C243.2825,10.4232 245.4765,12.4082 245.7995,14.9542 L272.5555,225.3462 C272.8385,227.5742 271.2115,230.0442 268.3475,230.4092 L213.2825,237.4122 C211.0545,237.6952 207.9875,236.4672 206.0715,234.1232 L138.1015,142.1782 L150.6485,240.8482 C150.9325,243.0772 149.3065,245.5472 146.4405,245.9122 L90.1035,253.0762 C87.5575,253.4002 85.3635,251.4142 85.0805,249.1872 L58.3255,38.7952 C58.0015,36.2492 59.6285,33.7782 62.1745,33.4542 L117.2385,26.4522 C120.1045,26.0872 123.4885,27.2742 125.0855,29.6592 L192.7385,121.6452 L180.2315,23.2922 C179.9075,20.7462 181.8525,18.2352 184.0805,17.9522 L240.4185,10.7872 Z" id="Fill-57" fill="#FF85FD"></path>
                    <path d="M240.4185,10.7872 C243.2825,10.4232 245.4765,12.4082 245.7995,14.9542 L272.5555,225.3462 C272.8385,227.5742 271.2115,230.0442 268.3475,230.4092 L213.2825,237.4122 C211.0545,237.6952 207.9875,236.4672 206.0715,234.1232 L138.1015,142.1782 L150.6485,240.8482 C150.9325,243.0772 149.3065,245.5472 146.4405,245.9122 L90.1035,253.0762 C87.5575,253.4002 85.3635,251.4142 85.0805,249.1872 L58.3255,38.7952 C58.0015,36.2492 59.6285,33.7782 62.1745,33.4542 L117.2385,26.4522 C120.1045,26.0872 123.4885,27.2742 125.0855,29.6592 L192.7385,121.6452 L180.2315,23.2922 C179.9075,20.7462 181.8525,18.2352 184.0805,17.9522 L240.4185,10.7872 Z" id="Stroke-59" stroke="#000000" stroke-width="2"></path>
                    <path d="M251.1617,0.0436 C254.0267,-0.3204 256.2197,1.6646 256.5437,4.2106 L283.2987,214.6026 C283.5817,216.8306 281.9557,219.3016 279.0907,219.6656 L224.0257,226.6676 C221.7987,226.9516 218.7307,225.7246 216.8157,223.3806 L148.8447,131.4346 L161.3917,230.1056 C161.6757,232.3326 160.0497,234.8046 157.1847,235.1686 L100.8477,242.3326 C98.3007,242.6556 96.1077,240.6716 95.8237,238.4426 L69.0687,28.0516 C68.7457,25.5056 70.3717,23.0346 72.9177,22.7106 L127.9827,15.7086 C130.8477,15.3436 134.2327,16.5306 135.8297,18.9156 L203.4817,110.9016 L190.9747,12.5486 C190.6507,10.0026 192.5967,7.4916 194.8237,7.2086 L251.1617,0.0436 Z" id="Fill-61" fill="#85F0FF"></path>
                    <path d="M251.1617,0.0436 C254.0267,-0.3204 256.2197,1.6646 256.5437,4.2106 L283.2987,214.6026 C283.5817,216.8306 281.9557,219.3016 279.0907,219.6656 L224.0257,226.6676 C221.7987,226.9516 218.7307,225.7246 216.8157,223.3806 L148.8447,131.4346 L161.3917,230.1056 C161.6757,232.3326 160.0497,234.8046 157.1847,235.1686 L100.8477,242.3326 C98.3007,242.6556 96.1077,240.6716 95.8237,238.4426 L69.0687,28.0516 C68.7457,25.5056 70.3717,23.0346 72.9177,22.7106 L127.9827,15.7086 C130.8477,15.3436 134.2327,16.5306 135.8297,18.9156 L203.4817,110.9016 L190.9747,12.5486 C190.6507,10.0026 192.5967,7.4916 194.8237,7.2086 L251.1617,0.0436 Z" id="Stroke-63" stroke="#000000" stroke-width="2"></path>
                    <path d="M473.6236,54.2623 C476.4996,54.5253 478.2116,56.9373 478.0076,59.1743 L473.5956,107.4223 C473.3316,110.2973 471.2396,112.0393 468.3636,111.7763 L387.2046,104.3543 L384.5456,133.4313 L448.7696,139.3043 C451.6456,139.5673 453.0386,141.9503 452.5436,143.8383 L443.9796,188.1623 C443.4846,190.0503 441.0436,192.0823 438.1676,191.8193 L379.6946,186.4713 L372.7116,262.8373 C372.5076,265.0743 370.0656,267.1063 367.5096,266.8723 L310.9546,261.7003 C308.3976,261.4673 306.7146,258.7353 306.9196,256.4983 L326.2336,45.2943 C326.4376,43.0573 328.5606,40.9963 331.1166,41.2303 L473.6236,54.2623 Z" id="Fill-65" fill="#FFF985"></path>
                    <path d="M473.6236,54.2623 C476.4996,54.5253 478.2116,56.9373 478.0076,59.1743 L473.5956,107.4223 C473.3316,110.2973 471.2396,112.0393 468.3636,111.7763 L387.2046,104.3543 L384.5456,133.4313 L448.7696,139.3043 C451.6456,139.5673 453.0386,141.9503 452.5436,143.8383 L443.9796,188.1623 C443.4846,190.0503 441.0436,192.0823 438.1676,191.8193 L379.6946,186.4713 L372.7116,262.8373 C372.5076,265.0743 370.0656,267.1063 367.5096,266.8723 L310.9546,261.7003 C308.3976,261.4673 306.7146,258.7353 306.9196,256.4983 L326.2336,45.2943 C326.4376,43.0573 328.5606,40.9963 331.1166,41.2303 L473.6236,54.2623 Z" id="Stroke-67" stroke="#000000" stroke-width="2"></path>
                    <path d="M468.8482,41.5294 C471.7242,41.7924 473.4372,44.2044 473.2322,46.4414 L468.8202,94.6894 C468.5572,97.5644 466.4642,99.3064 463.5882,99.0434 L382.4302,91.6214 L379.7712,120.6974 L443.9942,126.5714 C446.8702,126.8344 448.2642,129.2174 447.7692,131.1054 L439.2042,175.4284 C438.7092,177.3174 436.2692,179.3494 433.3932,179.0864 L374.9202,173.7384 L367.9372,250.1044 C367.7322,252.3414 365.2902,254.3734 362.7352,254.1394 L306.1792,248.9674 C303.6222,248.7344 301.9402,246.0024 302.1442,243.7654 L321.4582,32.5614 C321.6632,30.3244 323.7852,28.2634 326.3412,28.4974 L468.8482,41.5294 Z" id="Fill-69" fill="#FF8585"></path>
                    <path d="M468.8482,41.5294 C471.7242,41.7924 473.4372,44.2044 473.2322,46.4414 L468.8202,94.6894 C468.5572,97.5644 466.4642,99.3064 463.5882,99.0434 L382.4302,91.6214 L379.7712,120.6974 L443.9942,126.5714 C446.8702,126.8344 448.2642,129.2174 447.7692,131.1054 L439.2042,175.4284 C438.7092,177.3174 436.2692,179.3494 433.3932,179.0864 L374.9202,173.7384 L367.9372,250.1044 C367.7322,252.3414 365.2902,254.3734 362.7352,254.1394 L306.1792,248.9674 C303.6222,248.7344 301.9402,246.0024 302.1442,243.7654 L321.4582,32.5614 C321.6632,30.3244 323.7852,28.2634 326.3412,28.4974 L468.8482,41.5294 Z" id="Stroke-71" stroke="#000000" stroke-width="2"></path>
                    <path d="M464.0738,28.796 C466.9488,29.059 468.6618,31.471 468.4578,33.708 L464.0458,81.956 C463.7818,84.832 461.6898,86.573 458.8138,86.31 L377.6548,78.888 L374.9958,107.965 L439.2198,113.838 C442.0958,114.101 443.4888,116.484 442.9938,118.372 L434.4298,162.696 C433.9348,164.584 431.4938,166.616 428.6178,166.353 L370.1448,161.005 L363.1618,237.372 C362.9578,239.608 360.5158,241.64 357.9598,241.407 L301.4038,236.234 C298.8478,236.001 297.1648,233.269 297.3698,231.033 L316.6838,19.828 C316.8878,17.591 319.0108,15.53 321.5658,15.764 L464.0738,28.796 Z" id="Fill-73" fill="#FF85FD"></path>
                    <path d="M464.0738,28.796 C466.9488,29.059 468.6618,31.471 468.4578,33.708 L464.0458,81.956 C463.7818,84.832 461.6898,86.573 458.8138,86.31 L377.6548,78.888 L374.9958,107.965 L439.2198,113.838 C442.0958,114.101 443.4888,116.484 442.9938,118.372 L434.4298,162.696 C433.9348,164.584 431.4938,166.616 428.6178,166.353 L370.1448,161.005 L363.1618,237.372 C362.9578,239.608 360.5158,241.64 357.9598,241.407 L301.4038,236.234 C298.8478,236.001 297.1648,233.269 297.3698,231.033 L316.6838,19.828 C316.8878,17.591 319.0108,15.53 321.5658,15.764 L464.0738,28.796 Z" id="Stroke-75" stroke="#000000" stroke-width="2"></path>
                    <path d="M459.2984,16.0631 C462.1744,16.3261 463.8874,18.7381 463.6824,20.9751 L459.2704,69.2231 C459.0074,72.0981 456.9144,73.8401 454.0384,73.5771 L372.8804,66.1551 L370.2214,95.2311 L434.4444,101.1051 C437.3204,101.3681 438.7134,103.7511 438.2194,105.6391 L429.6544,149.9621 C429.1594,151.8511 426.7194,153.8831 423.8434,153.6201 L365.3704,148.2721 L358.3874,224.6381 C358.1824,226.8751 355.7404,228.9071 353.1854,228.6731 L296.6294,223.5011 C294.0724,223.2671 292.3904,220.5361 292.5944,218.2991 L311.9084,7.0951 C312.1134,4.8581 314.2354,2.7971 316.7914,3.0311 L459.2984,16.0631 Z" id="Fill-77" fill="#85F0FF"></path>
                    <path d="M459.2984,16.0631 C462.1744,16.3261 463.8874,18.7381 463.6824,20.9751 L459.2704,69.2231 C459.0074,72.0981 456.9144,73.8401 454.0384,73.5771 L372.8804,66.1551 L370.2214,95.2311 L434.4444,101.1051 C437.3204,101.3681 438.7134,103.7511 438.2194,105.6391 L429.6544,149.9621 C429.1594,151.8511 426.7194,153.8831 423.8434,153.6201 L365.3704,148.2721 L358.3874,224.6381 C358.1824,226.8751 355.7404,228.9071 353.1854,228.6731 L296.6294,223.5011 C294.0724,223.2671 292.3904,220.5361 292.5944,218.2991 L311.9084,7.0951 C312.1134,4.8581 314.2354,2.7971 316.7914,3.0311 L459.2984,16.0631 Z" id="Stroke-79" stroke="#000000" stroke-width="2"></path>
                    <path d="M201.0123,303.9342 C203.2863,304.3232 204.5013,306.3502 204.1563,308.3722 L175.6423,475.4312 C175.3393,477.2002 173.5213,478.7102 171.2463,478.3222 L123.9853,470.2552 C121.9633,469.9112 120.7483,467.8822 121.0503,466.1132 L130.7133,409.5002 L95.3303,403.4602 L85.6673,460.0742 C85.3663,461.8432 83.5473,463.3532 81.2733,462.9652 L34.0113,454.8982 C32.2413,454.5962 30.7753,452.5252 31.0763,450.7552 L59.5913,283.6972 C59.9363,281.6752 62.0073,280.2082 63.7773,280.5102 L111.0383,288.5772 C113.3133,288.9652 114.5273,290.9932 114.1823,293.0152 L102.9233,358.9792 L138.3063,365.0182 L149.5653,299.0542 C149.9103,297.0332 151.7293,295.5222 153.7503,295.8682 L201.0123,303.9342 Z" id="Fill-81" fill="#FFF985"></path>
                    <path d="M201.0123,303.9342 C203.2863,304.3232 204.5013,306.3502 204.1563,308.3722 L175.6423,475.4312 C175.3393,477.2002 173.5213,478.7102 171.2463,478.3222 L123.9853,470.2552 C121.9633,469.9112 120.7483,467.8822 121.0503,466.1132 L130.7133,409.5002 L95.3303,403.4602 L85.6673,460.0742 C85.3663,461.8432 83.5473,463.3532 81.2733,462.9652 L34.0113,454.8982 C32.2413,454.5962 30.7753,452.5252 31.0763,450.7552 L59.5913,283.6972 C59.9363,281.6752 62.0073,280.2082 63.7773,280.5102 L111.0383,288.5772 C113.3133,288.9652 114.5273,290.9932 114.1823,293.0152 L102.9233,358.9792 L138.3063,365.0182 L149.5653,299.0542 C149.9103,297.0332 151.7293,295.5222 153.7503,295.8682 L201.0123,303.9342 Z" id="Stroke-83" stroke="#000000" stroke-width="2"></path>
                    <path d="M190.6666,293.5885 C192.9406,293.9775 194.1556,296.0045 193.8106,298.0265 L165.2966,465.0855 C164.9936,466.8545 163.1756,468.3645 160.9006,467.9765 L113.6396,459.9095 C111.6176,459.5655 110.4026,457.5365 110.7046,455.7675 L120.3676,399.1545 L84.9846,393.1145 L75.3216,449.7285 C75.0206,451.4975 73.2016,453.0075 70.9276,452.6195 L23.6656,444.5525 C21.8956,444.2505 20.4296,442.1795 20.7306,440.4095 L49.2456,273.3515 C49.5906,271.3295 51.6616,269.8625 53.4316,270.1645 L100.6926,278.2315 C102.9676,278.6195 104.1816,280.6475 103.8366,282.6695 L92.5776,348.6335 L127.9606,354.6725 L139.2196,288.7085 C139.5646,286.6875 141.3836,285.1765 143.4046,285.5225 L190.6666,293.5885 Z" id="Fill-85" fill="#FF8585"></path>
                    <path d="M190.6666,293.5885 C192.9406,293.9775 194.1556,296.0045 193.8106,298.0265 L165.2966,465.0855 C164.9936,466.8545 163.1756,468.3645 160.9006,467.9765 L113.6396,459.9095 C111.6176,459.5655 110.4026,457.5365 110.7046,455.7675 L120.3676,399.1545 L84.9846,393.1145 L75.3216,449.7285 C75.0206,451.4975 73.2016,453.0075 70.9276,452.6195 L23.6656,444.5525 C21.8956,444.2505 20.4296,442.1795 20.7306,440.4095 L49.2456,273.3515 C49.5906,271.3295 51.6616,269.8625 53.4316,270.1645 L100.6926,278.2315 C102.9676,278.6195 104.1816,280.6475 103.8366,282.6695 L92.5776,348.6335 L127.9606,354.6725 L139.2196,288.7085 C139.5646,286.6875 141.3836,285.1765 143.4046,285.5225 L190.6666,293.5885 Z" id="Stroke-87" stroke="#000000" stroke-width="2"></path>
                    <path d="M180.3209,283.2428 C182.5949,283.6318 183.8099,285.6588 183.4659,287.6808 L154.9509,454.7398 C154.6489,456.5088 152.8299,458.0188 150.5549,457.6308 L103.2939,449.5638 C101.2719,449.2198 100.0569,447.1908 100.3589,445.4218 L110.0219,388.8088 L74.6389,382.7688 L64.9759,439.3828 C64.6749,441.1518 62.8559,442.6618 60.5819,442.2738 L13.3199,434.2068 C11.5499,433.9048 10.0839,431.8338 10.3849,430.0648 L38.8999,263.0058 C39.2449,260.9838 41.3159,259.5168 43.0859,259.8188 L90.3469,267.8858 C92.6219,268.2738 93.8359,270.3018 93.4909,272.3238 L82.2319,338.2878 L117.6149,344.3278 L128.8739,278.3628 C129.2189,276.3418 131.0379,274.8308 133.0589,275.1768 L180.3209,283.2428 Z" id="Fill-89" fill="#FF85FD"></path>
                    <path d="M180.3209,283.2428 C182.5949,283.6318 183.8099,285.6588 183.4659,287.6808 L154.9509,454.7398 C154.6489,456.5088 152.8299,458.0188 150.5549,457.6308 L103.2939,449.5638 C101.2719,449.2198 100.0569,447.1908 100.3589,445.4218 L110.0219,388.8088 L74.6389,382.7688 L64.9759,439.3828 C64.6749,441.1518 62.8559,442.6618 60.5819,442.2738 L13.3199,434.2068 C11.5499,433.9048 10.0839,431.8338 10.3849,430.0648 L38.8999,263.0058 C39.2449,260.9838 41.3159,259.5168 43.0859,259.8188 L90.3469,267.8858 C92.6219,268.2738 93.8359,270.3018 93.4909,272.3238 L82.2319,338.2878 L117.6149,344.3278 L128.8739,278.3628 C129.2189,276.3418 131.0379,274.8308 133.0589,275.1768 L180.3209,283.2428 Z" id="Stroke-91" stroke="#000000" stroke-width="2"></path>
                    <path d="M169.9752,272.8971 C172.2492,273.2861 173.4642,275.3131 173.1202,277.3351 L144.6052,444.3941 C144.3032,446.1631 142.4852,447.6731 140.2092,447.2851 L92.9482,439.2181 C90.9262,438.8741 89.7112,436.8451 90.0142,435.0761 L99.6762,378.4631 L64.2932,372.4231 L54.6302,429.0371 C54.3292,430.8061 52.5102,432.3161 50.2362,431.9281 L2.9742,423.8611 C1.2042,423.5591 -0.2618,421.4881 0.0392,419.7191 L28.5542,252.6601 C28.8992,250.6381 30.9702,249.1711 32.7402,249.4731 L80.0012,257.5401 C82.2762,257.9281 83.4902,259.9561 83.1452,261.9781 L71.8862,327.9421 L107.2692,333.9821 L118.5282,268.0171 C118.8732,265.9961 120.6922,264.4851 122.7132,264.8311 L169.9752,272.8971 Z" id="Fill-93" fill="#85FF89"></path>
                    <path d="M169.9752,272.8971 C172.2492,273.2861 173.4642,275.3131 173.1202,277.3351 L144.6052,444.3941 C144.3032,446.1631 142.4852,447.6731 140.2092,447.2851 L92.9482,439.2181 C90.9262,438.8741 89.7112,436.8451 90.0142,435.0761 L99.6762,378.4631 L64.2932,372.4231 L54.6302,429.0371 C54.3292,430.8061 52.5102,432.3161 50.2362,431.9281 L2.9742,423.8611 C1.2042,423.5591 -0.2618,421.4881 0.0392,419.7191 L28.5542,252.6601 C28.8992,250.6381 30.9702,249.1711 32.7402,249.4731 L80.0012,257.5401 C82.2762,257.9281 83.4902,259.9561 83.1452,261.9781 L71.8862,327.9421 L107.2692,333.9821 L118.5282,268.0171 C118.8732,265.9961 120.6922,264.4851 122.7132,264.8311 L169.9752,272.8971 Z" id="Stroke-95" stroke="#000000" stroke-width="2"></path>
                    <path d="M274.026,346.1334 L253.85,392.5844 L281.297,396.2524 L274.026,346.1334 Z M348.605,469.3984 C349.164,471.0244 347.91,472.6674 345.877,472.3964 L295.558,465.6714 C293.271,465.3654 291.408,463.8224 290.663,461.6544 L286.605,433.9514 L238.828,427.5674 L227.638,453.2324 C226.35,455.1294 224.147,456.1274 221.86,455.8224 L171.542,449.0984 C169.508,448.8264 168.73,446.9114 169.696,445.4884 L249.68,284.4204 C250.646,282.9974 253.679,281.5914 256.221,281.9314 L308.064,288.8604 C310.605,289.1984 313.163,291.3524 313.721,292.9784 L348.605,469.3984 Z" id="Fill-97" fill="#FFF985"></path>
                    <path d="M274.026,346.1334 L253.85,392.5844 L281.297,396.2524 L274.026,346.1334 Z M348.605,469.3984 C349.164,471.0244 347.91,472.6674 345.877,472.3964 L295.558,465.6714 C293.271,465.3654 291.408,463.8224 290.663,461.6544 L286.605,433.9514 L238.828,427.5674 L227.638,453.2324 C226.35,455.1294 224.147,456.1274 221.86,455.8224 L171.542,449.0984 C169.508,448.8264 168.73,446.9114 169.696,445.4884 L249.68,284.4204 C250.646,282.9974 253.679,281.5914 256.221,281.9314 L308.064,288.8604 C310.605,289.1984 313.163,291.3524 313.721,292.9784 L348.605,469.3984 Z" id="Stroke-99" stroke="#000000" stroke-width="2"></path>
                    <path d="M286.7584,333.4 L266.5824,379.851 L294.0294,383.519 L286.7584,333.4 Z M361.3384,456.665 C361.8974,458.291 360.6424,459.934 358.6094,459.663 L308.2914,452.938 C306.0044,452.632 304.1414,451.09 303.3964,448.921 L299.3384,421.218 L251.5614,414.834 L240.3714,440.499 C239.0824,442.396 236.8804,443.395 234.5934,443.089 L184.2754,436.365 C182.2414,436.093 181.4624,434.178 182.4294,432.755 L262.4134,271.687 C263.3794,270.264 266.4124,268.859 268.9534,269.198 L320.7974,276.127 C323.3384,276.466 325.8964,278.619 326.4544,280.246 L361.3384,456.665 Z" id="Fill-101" fill="#FF8585"></path>
                    <path d="M286.7584,333.4 L266.5824,379.851 L294.0294,383.519 L286.7584,333.4 Z M361.3384,456.665 C361.8974,458.291 360.6424,459.934 358.6094,459.663 L308.2914,452.938 C306.0044,452.632 304.1414,451.09 303.3964,448.921 L299.3384,421.218 L251.5614,414.834 L240.3714,440.499 C239.0824,442.396 236.8804,443.395 234.5934,443.089 L184.2754,436.365 C182.2414,436.093 181.4624,434.178 182.4294,432.755 L262.4134,271.687 C263.3794,270.264 266.4124,268.859 268.9534,269.198 L320.7974,276.127 C323.3384,276.466 325.8964,278.619 326.4544,280.246 L361.3384,456.665 Z" id="Stroke-103" stroke="#000000" stroke-width="2"></path>
                    <path d="M299.4918,320.6666 L279.3158,367.1176 L306.7628,370.7856 L299.4918,320.6666 Z M374.0708,443.9316 C374.6298,445.5586 373.3758,447.2006 371.3428,446.9296 L321.0238,440.2046 C318.7368,439.8986 316.8738,438.3566 316.1298,436.1876 L312.0708,408.4846 L264.2948,402.1006 L253.1038,427.7656 C251.8158,429.6626 249.6128,430.6616 247.3258,430.3556 L197.0078,423.6316 C194.9748,423.3596 194.1958,421.4446 195.1618,420.0216 L275.1458,258.9536 C276.1128,257.5306 279.1458,256.1256 281.6868,256.4656 L333.5298,263.3936 C336.0718,263.7326 338.6298,265.8856 339.1878,267.5126 L374.0708,443.9316 Z" id="Fill-105" fill="#FF85FD"></path>
                    <path d="M299.4918,320.6666 L279.3158,367.1176 L306.7628,370.7856 L299.4918,320.6666 Z M374.0708,443.9316 C374.6298,445.5586 373.3758,447.2006 371.3428,446.9296 L321.0238,440.2046 C318.7368,439.8986 316.8738,438.3566 316.1298,436.1876 L312.0708,408.4846 L264.2948,402.1006 L253.1038,427.7656 C251.8158,429.6626 249.6128,430.6616 247.3258,430.3556 L197.0078,423.6316 C194.9748,423.3596 194.1958,421.4446 195.1618,420.0216 L275.1458,258.9536 C276.1128,257.5306 279.1458,256.1256 281.6868,256.4656 L333.5298,263.3936 C336.0718,263.7326 338.6298,265.8856 339.1878,267.5126 L374.0708,443.9316 Z" id="Stroke-107" stroke="#000000" stroke-width="2"></path>
                    <path d="M312.2252,307.9342 L292.0492,354.3852 L319.4962,358.0522 L312.2252,307.9342 Z M386.8042,431.1982 C387.3632,432.8252 386.1092,434.4682 384.0762,434.1962 L333.7572,427.4722 C331.4702,427.1662 329.6072,425.6232 328.8622,423.4552 L324.8042,395.7522 L277.0272,389.3682 L265.8372,415.0332 C264.5492,416.9292 262.3462,417.9282 260.0592,417.6222 L209.7412,410.8992 C207.7072,410.6262 206.9292,408.7122 207.8952,407.2892 L287.8792,246.2202 C288.8462,244.7972 291.8792,243.3922 294.4202,243.7322 L346.2632,250.6602 C348.8042,250.9992 351.3632,253.1522 351.9212,254.7792 L386.8042,431.1982 Z" id="Fill-109" fill="#85FF89"></path>
                    <path d="M312.2252,307.9342 L292.0492,354.3852 L319.4962,358.0522 L312.2252,307.9342 Z M386.8042,431.1982 C387.3632,432.8252 386.1092,434.4682 384.0762,434.1962 L333.7572,427.4722 C331.4702,427.1662 329.6072,425.6232 328.8622,423.4552 L324.8042,395.7522 L277.0272,389.3682 L265.8372,415.0332 C264.5492,416.9292 262.3462,417.9282 260.0592,417.6222 L209.7412,410.8992 C207.7072,410.6262 206.9292,408.7122 207.8952,407.2892 L287.8792,246.2202 C288.8462,244.7972 291.8792,243.3922 294.4202,243.7322 L346.2632,250.6602 C348.8042,250.9992 351.3632,253.1522 351.9212,254.7792 L386.8042,431.1982 Z" id="Stroke-111" stroke="#000000" stroke-width="2"></path>
                </g>
            </g>
        </g>
    </g>
</svg>